<svg width="42" height="41" viewBox="0 0 42 41" fill="none" xmlns="http://www.w3.org/2000/svg">
<path d="M0.305459 20.2624L0.0986328 20.2866L0.466177 23.4296L0.673003 23.4054L0.305459 20.2624Z" fill="#E36700"/>
<path d="M0.81083 24.5742L0.604004 24.5984L0.789435 26.1841L0.996261 26.1599L0.81083 24.5742Z" fill="#E36700"/>
<path d="M14.5452 13.8537L14.3002 13.1657C14.1317 12.6929 13.8077 12.2912 13.3812 12.0264C12.9548 11.7616 12.451 11.6494 11.9525 11.7081L2.19599 12.8493C1.61153 12.9179 1.07822 13.2158 0.713365 13.6775C0.348509 14.1392 0.181984 14.7269 0.250414 15.3114L3.0269 39.0544C3.04995 39.253 3.11193 39.4451 3.20928 39.6197C3.30664 39.7943 3.43746 39.948 3.59427 40.072C3.75108 40.196 3.9308 40.2879 4.12314 40.3424C4.31549 40.3969 4.51669 40.4129 4.71524 40.3896L39.6254 36.3065C39.8244 36.284 40.0169 36.2223 40.192 36.1252C40.3671 36.0281 40.5212 35.8973 40.6457 35.7404C40.7701 35.5836 40.8623 35.4037 40.9171 35.2111C40.9718 35.0185 40.988 34.817 40.9647 34.6182L38.5557 14.0926C38.5091 13.6919 38.3053 13.3262 37.989 13.0758C37.6728 12.8254 37.27 12.7109 36.8694 12.7574L16.597 15.1297C16.1611 15.1801 15.721 15.0815 15.3484 14.8498C14.9758 14.6181 14.6927 14.267 14.5452 13.8537Z" fill="#E36700"/>
<path d="M15.5197 3.52882L4.48975 5.72681L7.51802 20.9232L18.5479 18.7252L15.5197 3.52882Z" fill="#E36700"/>
<path opacity="0.7" d="M15.5197 3.52882L4.48975 5.72681L7.51802 20.9232L18.5479 18.7252L15.5197 3.52882Z" fill="white"/>
<g opacity="0.4">
<path d="M14.0464 7.17987L7.25222 8.53544C7.09394 8.56616 6.92993 8.53324 6.79578 8.4438C6.66163 8.35437 6.56815 8.21564 6.53564 8.05772C6.50492 7.89945 6.53784 7.73544 6.62728 7.60129C6.71671 7.46714 6.85544 7.37366 7.01336 7.34115L13.8117 5.99169C13.9699 5.96097 14.1339 5.9939 14.2681 6.08333C14.4022 6.17277 14.4957 6.3115 14.5282 6.46941C14.5571 6.62735 14.5227 6.7903 14.4326 6.92317C14.3425 7.05605 14.2038 7.14823 14.0464 7.17987Z" fill="#E36700"/>
<path d="M14.5474 9.69713L7.75321 11.0588C7.59524 11.089 7.43176 11.0557 7.29807 10.9664C7.16438 10.877 7.07121 10.7386 7.03868 10.5811C7.00855 10.4231 7.04176 10.2597 7.13114 10.126C7.22053 9.99228 7.35891 9.89911 7.5164 9.86658L14.3106 8.51304C14.4686 8.48292 14.6321 8.51613 14.7658 8.60551C14.8994 8.69489 14.9926 8.83327 15.0252 8.99076C15.0529 9.1475 15.0186 9.30889 14.9294 9.44074C14.8402 9.5726 14.7032 9.66456 14.5474 9.69713Z" fill="#E36700"/>
<path d="M15.0469 12.2103L8.25273 13.5638C8.09476 13.5939 7.93128 13.5607 7.79759 13.4713C7.66389 13.382 7.57072 13.2436 7.53819 13.0861C7.50806 12.9281 7.54128 12.7646 7.63066 12.6309C7.72004 12.4973 7.85842 12.4041 8.01591 12.3715L14.8101 11.016C14.9681 10.9858 15.1316 11.0191 15.2653 11.1084C15.399 11.1978 15.4921 11.3362 15.5247 11.4937C15.5554 11.652 15.5225 11.816 15.433 11.9501C15.3436 12.0843 15.2049 12.1778 15.0469 12.2103Z" fill="#E36700"/>
<path d="M15.5503 14.7336L8.75612 16.0871C8.59785 16.1179 8.43384 16.0849 8.29969 15.9955C8.16554 15.9061 8.07206 15.7673 8.03954 15.6094C8.00882 15.4511 8.04175 15.2871 8.13119 15.153C8.22062 15.0188 8.35934 14.9254 8.51726 14.8928L15.3115 13.5393C15.4698 13.5086 15.6338 13.5415 15.7679 13.6309C15.9021 13.7204 15.9955 13.8591 16.0281 14.017C16.0588 14.1753 16.0259 14.3393 15.9364 14.4735C15.847 14.6076 15.7083 14.7011 15.5503 14.7336Z" fill="#E36700"/>
<path d="M14.191 17.6063L9.25457 18.5903C9.0966 18.6204 8.93312 18.5872 8.79943 18.4978C8.66574 18.4084 8.57257 18.2701 8.54003 18.1126C8.50931 17.9543 8.54224 17.7903 8.63167 17.6561C8.72111 17.522 8.85983 17.4285 9.01775 17.396L13.9542 16.412C14.1121 16.3818 14.2756 16.4151 14.4093 16.5044C14.543 16.5938 14.6362 16.7322 14.6687 16.8897C14.6994 17.048 14.6665 17.212 14.5771 17.3461C14.4876 17.4803 14.3489 17.5737 14.191 17.6063Z" fill="#E36700"/>
</g>
<path d="M31.2358 0.600091L20.0928 2.12451L22.193 17.4767L33.336 15.9523L31.2358 0.600091Z" fill="#E36700"/>
<path opacity="0.7" d="M31.2358 0.600091L20.0928 2.12451L22.193 17.4767L33.336 15.9523L31.2358 0.600091Z" fill="white"/>
<g opacity="0.4">
<path d="M29.545 4.15853L22.6814 5.09763C22.5216 5.1186 22.3599 5.0757 22.2315 4.97824C22.1031 4.88079 22.0183 4.73663 21.9954 4.57704C21.9745 4.4172 22.0174 4.25554 22.1148 4.12713C22.2123 3.99871 22.3564 3.9139 22.516 3.89109L29.3797 2.95198C29.5395 2.93101 29.7012 2.97391 29.8296 3.07137C29.958 3.16883 30.0428 3.31299 30.0656 3.47257C30.0866 3.63241 30.0437 3.79407 29.9462 3.92249C29.8488 4.0509 29.7046 4.13572 29.545 4.15853Z" fill="#E36700"/>
<path d="M29.8919 6.69608L23.0283 7.63518C22.8685 7.65615 22.7068 7.61325 22.5784 7.51579C22.45 7.41833 22.3652 7.27417 22.3423 7.11459C22.322 6.95507 22.3651 6.79394 22.4625 6.66598C22.5599 6.53802 22.7038 6.4535 22.8629 6.43068L29.7266 5.49157C29.8861 5.47057 30.0475 5.51319 30.1758 5.61022C30.3042 5.70726 30.3892 5.85091 30.4125 6.01012C30.4335 6.16996 30.3906 6.33162 30.2931 6.46004C30.1957 6.58845 30.0515 6.67326 29.8919 6.69608Z" fill="#E36700"/>
<path d="M25.2667 9.91559L23.3762 10.1749C23.2164 10.1958 23.0547 10.1529 22.9263 10.0555C22.7979 9.95802 22.7131 9.81386 22.6903 9.65427C22.6693 9.49443 22.7122 9.33277 22.8097 9.20436C22.9071 9.07594 23.0513 8.99113 23.2109 8.96832L25.1034 8.70905C25.2629 8.68866 25.424 8.73182 25.552 8.82923C25.6799 8.92663 25.7644 9.07045 25.7873 9.22963C25.8082 9.38947 25.7653 9.55114 25.6679 9.67955C25.5704 9.80797 25.4263 9.89278 25.2667 9.91559Z" fill="#E36700"/>
<path d="M28.9351 9.41361L27.0426 9.67288C26.8831 9.69327 26.722 9.6501 26.594 9.5527C26.4661 9.4553 26.3815 9.31148 26.3587 9.15229C26.3378 8.99245 26.3807 8.83079 26.4781 8.70237C26.5756 8.57396 26.7197 8.48915 26.8793 8.46634L28.7698 8.2091C28.9293 8.1881 29.0907 8.23072 29.2191 8.32775C29.3474 8.42479 29.4324 8.56844 29.4557 8.72765C29.4767 8.88749 29.4338 9.04915 29.3363 9.17757C29.2389 9.30598 29.0947 9.39079 28.9351 9.41361Z" fill="#E36700"/>
<path d="M30.5863 11.7735L23.7226 12.7126C23.5628 12.7336 23.4011 12.6907 23.2727 12.5932C23.1443 12.4958 23.0595 12.3516 23.0367 12.192C23.0163 12.0325 23.0595 11.8714 23.1569 11.7434C23.2543 11.6155 23.3981 11.5309 23.5573 11.5081L30.4209 10.567C30.5807 10.546 30.7424 10.5889 30.8708 10.6864C30.9992 10.7838 31.084 10.928 31.1069 11.0876C31.1278 11.2474 31.0849 11.4091 30.9875 11.5375C30.89 11.6659 30.7459 11.7507 30.5863 11.7735Z" fill="#E36700"/>
<path d="M29.0595 14.5684L24.07 15.2502C23.9108 15.2707 23.7499 15.2278 23.622 15.1308C23.4941 15.0338 23.4094 14.8905 23.3861 14.7317C23.3651 14.5722 23.4077 14.4108 23.5048 14.2824C23.6018 14.1541 23.7454 14.069 23.9046 14.0457L28.8942 13.3639C29.0534 13.3434 29.2142 13.3863 29.3421 13.4833C29.47 13.5803 29.5548 13.7236 29.5781 13.8824C29.5991 14.042 29.5564 14.2033 29.4594 14.3317C29.3624 14.4601 29.2187 14.5451 29.0595 14.5684Z" fill="#E36700"/>
</g>
<path d="M20.7209 2.84009L9.5166 3.81641L10.8617 19.2531L22.0661 18.2768L20.7209 2.84009Z" fill="#E36700"/>
<path opacity="0.8" d="M20.7209 2.84009L9.5166 3.81641L10.8617 19.2531L22.0661 18.2768L20.7209 2.84009Z" fill="white"/>
<g opacity="0.4">
<path d="M18.8567 6.31425L11.9542 6.91446C11.7936 6.92751 11.6344 6.87676 11.511 6.7732C11.3875 6.66965 11.3099 6.52162 11.2948 6.3612C11.2823 6.20095 11.3333 6.04221 11.4368 5.91923C11.5403 5.79624 11.688 5.71888 11.8481 5.70383L18.7505 5.09137C18.9111 5.07831 19.0704 5.12906 19.1938 5.23262C19.3172 5.33618 19.3949 5.48421 19.4099 5.64462C19.4178 5.72496 19.4097 5.80607 19.3861 5.88327C19.3626 5.96047 19.3239 6.03225 19.2725 6.09448C19.2211 6.15671 19.1579 6.20816 19.0865 6.24588C19.0152 6.28359 18.937 6.30683 18.8567 6.31425Z" fill="#E36700"/>
<path d="M19.08 8.86629L12.1775 9.47875C12.017 9.49181 11.8577 9.44106 11.7343 9.3375C11.6108 9.23394 11.5332 9.08592 11.5181 8.9255C11.5051 8.76491 11.5558 8.60564 11.6594 8.48221C11.7629 8.35878 11.911 8.28113 12.0714 8.26609L18.9738 7.65363C19.1344 7.64057 19.2937 7.69132 19.4171 7.79488C19.5405 7.89844 19.6182 8.04646 19.6332 8.20688C19.6463 8.36747 19.5955 8.52674 19.492 8.65017C19.3884 8.7736 19.2404 8.85125 19.08 8.86629Z" fill="#E36700"/>
<path d="M19.3021 11.4183L12.3997 12.0308C12.2391 12.0438 12.0799 11.9931 11.9564 11.8895C11.833 11.7859 11.7553 11.6379 11.7403 11.4775C11.7272 11.3169 11.778 11.1576 11.8816 11.0342C11.9851 10.9108 12.1331 10.8331 12.2936 10.8181L19.196 10.2056C19.3566 10.1926 19.5158 10.2433 19.6393 10.3469C19.7627 10.4504 19.8403 10.5985 19.8554 10.7589C19.8684 10.9195 19.8177 11.0787 19.7141 11.2022C19.6106 11.3256 19.4625 11.4033 19.3021 11.4183Z" fill="#E36700"/>
<path d="M19.5282 13.97L12.6258 14.5825C12.4652 14.5955 12.3059 14.5448 12.1825 14.4412C12.0591 14.3377 11.9814 14.1896 11.9664 14.0292C11.9533 13.8686 12.0041 13.7094 12.1076 13.5859C12.2112 13.4625 12.3592 13.3848 12.5196 13.3698L19.422 12.7696C19.5826 12.7565 19.7419 12.8073 19.8653 12.9108C19.9888 13.0144 20.0664 13.1624 20.0815 13.3228C20.0912 13.4814 20.0389 13.6375 19.9357 13.7583C19.8325 13.879 19.6863 13.955 19.5282 13.97Z" fill="#E36700"/>
<path d="M17.8604 16.6873L12.8443 17.1242C12.6827 17.139 12.5219 17.089 12.3971 16.9853C12.2723 16.8816 12.1938 16.7325 12.1788 16.571C12.1657 16.4104 12.2165 16.2511 12.32 16.1277C12.4236 16.0043 12.5716 15.9266 12.732 15.9116L17.7481 15.4747C17.9087 15.4616 18.0679 15.5124 18.1914 15.6159C18.3148 15.7195 18.3924 15.8675 18.4075 16.0279C18.4206 16.1876 18.3707 16.346 18.2684 16.4692C18.1662 16.5925 18.0197 16.6708 17.8604 16.6873Z" fill="#E36700"/>
</g>
<path d="M34.3734 2.09003L23.1396 2.63159L23.8858 18.1088L35.1195 17.5673L34.3734 2.09003Z" fill="#E36700"/>
<path opacity="0.8" d="M34.3734 2.09003L23.1396 2.63159L23.8858 18.1088L35.1195 17.5673L34.3734 2.09003Z" fill="white"/>
<g opacity="0.4">
<path d="M32.3775 5.4855L25.4588 5.82032C25.298 5.827 25.141 5.77014 25.0218 5.66203C24.9027 5.55391 24.8308 5.40323 24.8218 5.24256C24.8151 5.08178 24.872 4.92483 24.9801 4.80563C25.0882 4.68644 25.2389 4.61458 25.3996 4.6056L32.3204 4.27079C32.4811 4.26411 32.6381 4.32096 32.7573 4.42908C32.8765 4.53719 32.9483 4.68788 32.9573 4.84855C32.964 5.00966 32.9069 5.16691 32.7983 5.28616C32.6898 5.40541 32.5386 5.47704 32.3775 5.4855Z" fill="#E36700"/>
<path d="M32.5026 8.04565L25.5818 8.37842C25.421 8.3851 25.2641 8.32824 25.1449 8.22013C25.0257 8.11202 24.9538 7.96133 24.9449 7.80066C24.9382 7.63954 24.9953 7.4823 25.1039 7.36305C25.2124 7.2438 25.3636 7.17217 25.5247 7.16371L32.4434 6.82889C32.6045 6.82222 32.7618 6.87936 32.881 6.98791C33.0003 7.09646 33.0719 7.24765 33.0804 7.40869C33.0871 7.56947 33.0302 7.72643 32.9221 7.84562C32.814 7.96481 32.6633 8.03667 32.5026 8.04565Z" fill="#E36700"/>
<path d="M27.6122 10.8547L25.7054 10.9466C25.5446 10.9533 25.3876 10.8964 25.2684 10.7883C25.1492 10.6802 25.0774 10.5295 25.0684 10.3688C25.0617 10.2081 25.1186 10.0511 25.2267 9.93192C25.3348 9.81272 25.4855 9.74087 25.6462 9.73189L27.5529 9.63798C27.7141 9.6313 27.8713 9.68844 27.9906 9.79699C28.1098 9.90554 28.1814 10.0567 28.1899 10.2178C28.1966 10.3786 28.1397 10.5355 28.0316 10.6547C27.9235 10.7739 27.7728 10.8458 27.6122 10.8547Z" fill="#E36700"/>
<path d="M31.3099 10.6669L29.4031 10.7588C29.2423 10.7655 29.0854 10.7086 28.9662 10.6005C28.847 10.4924 28.7751 10.3417 28.7662 10.181C28.7595 10.0202 28.8163 9.86328 28.9244 9.74408C29.0326 9.62489 29.1832 9.55304 29.3439 9.54406L31.2507 9.45219C31.4115 9.4455 31.5684 9.50236 31.6876 9.61048C31.8068 9.71859 31.8787 9.86927 31.8877 10.0299C31.8943 10.1907 31.8375 10.3477 31.7294 10.4669C31.6213 10.5861 31.4706 10.6579 31.3099 10.6669Z" fill="#E36700"/>
<path d="M32.7492 13.1638L25.8284 13.4966C25.6676 13.5033 25.5107 13.4464 25.3915 13.3383C25.2723 13.2302 25.2004 13.0795 25.1914 12.9188C25.1848 12.7577 25.2419 12.6005 25.3505 12.4812C25.459 12.362 25.6102 12.2903 25.7712 12.2819L32.69 11.9471C32.8511 11.9404 33.0084 11.9975 33.1276 12.1061C33.2469 12.2146 33.3185 12.3658 33.3269 12.5269C33.3336 12.6876 33.2768 12.8446 33.1687 12.9638C33.0605 13.083 32.9099 13.1548 32.7492 13.1638Z" fill="#E36700"/>
<path d="M30.9812 15.8136L25.9529 16.0566C25.7921 16.0633 25.6352 16.0064 25.516 15.8983C25.3968 15.7902 25.3249 15.6395 25.316 15.4788C25.3093 15.318 25.3661 15.1611 25.4742 15.0419C25.5824 14.9227 25.733 14.8508 25.8937 14.8419L30.922 14.5989C31.0828 14.5922 31.2397 14.6491 31.3589 14.7572C31.4781 14.8653 31.55 15.016 31.559 15.1767C31.5656 15.3375 31.5088 15.4944 31.4007 15.6136C31.2926 15.7328 31.1419 15.8046 30.9812 15.8136Z" fill="#E36700"/>
</g>
<path d="M17.6606 14.2926L17.481 13.6209C17.3551 13.156 17.0629 12.7536 16.6597 12.4902C16.2566 12.2267 15.7708 12.1205 15.2945 12.1918L5.538 13.333C4.9461 13.4056 4.40098 13.6915 4.00484 14.1373C3.60871 14.583 3.38876 15.158 3.38623 15.7543L3.93949 38.9971C3.94279 39.1886 3.98704 39.3771 4.06926 39.55C4.15149 39.7229 4.26978 39.8762 4.41618 39.9996C4.56259 40.123 4.73372 40.2136 4.91806 40.2654C5.1024 40.3171 5.29569 40.3288 5.48492 40.2996L40.3951 36.2166C40.8005 36.1674 41.174 35.9721 41.4457 35.6673C41.7174 35.3626 41.8686 34.9692 41.8711 34.5609L41.3934 14.4681C41.3898 14.2766 41.3453 14.088 41.2629 13.9151C41.1804 13.7422 41.0619 13.5889 40.9154 13.4656C40.7688 13.3422 40.5976 13.2516 40.4131 13.1999C40.2287 13.1482 40.0353 13.1365 39.8459 13.1656L19.5756 15.5358C19.1595 15.5994 18.7345 15.5078 18.3815 15.2786C18.0285 15.0494 17.7719 14.6985 17.6606 14.2926Z" fill="#E36700"/>
<path opacity="0.3" d="M17.6606 14.2926L17.481 13.6209C17.3551 13.156 17.0629 12.7536 16.6597 12.4902C16.2566 12.2267 15.7708 12.1205 15.2945 12.1918L5.538 13.333C4.9461 13.4056 4.40098 13.6915 4.00484 14.1373C3.60871 14.583 3.38876 15.158 3.38623 15.7543L3.93949 38.9971C3.94279 39.1886 3.98704 39.3771 4.06926 39.55C4.15149 39.7229 4.26978 39.8762 4.41618 39.9996C4.56259 40.123 4.73372 40.2136 4.91806 40.2654C5.1024 40.3171 5.29569 40.3288 5.48492 40.2996L40.3951 36.2166C40.8005 36.1674 41.174 35.9721 41.4457 35.6673C41.7174 35.3626 41.8687 34.9692 41.8711 34.5609L41.3934 14.4681C41.3898 14.2766 41.3453 14.088 41.2629 13.9151C41.1804 13.7422 41.0619 13.5889 40.9154 13.4656C40.7688 13.3422 40.5976 13.2516 40.4131 13.1999C40.2287 13.1482 40.0353 13.1365 39.8459 13.1656L19.5756 15.5358C19.1595 15.5994 18.7345 15.5078 18.3815 15.2786C18.0285 15.0494 17.7719 14.6985 17.6606 14.2926Z" fill="black"/>
</svg>
