<svg width="48" height="41" viewBox="0 0 48 41" fill="none" xmlns="http://www.w3.org/2000/svg">
<path fill-rule="evenodd" clip-rule="evenodd" d="M25.0031 23.1342C25.4251 22.2942 25.9587 21.5152 26.5896 20.8183L25.7037 18.3866L29.305 16.0706L31.1519 17.8829C32.0403 17.5947 32.9633 17.4272 33.8963 17.3849L34.9906 15.04L39.1709 15.9433V18.5313C40.013 18.9519 40.7925 19.4878 41.4868 20.1235L43.9185 19.2377L46.2345 22.8332L44.4222 24.6859C44.7124 25.574 44.8818 26.4971 44.926 27.4303L47.2419 28.5246L46.3387 32.7106H43.7506C43.327 33.5497 42.7936 34.3285 42.1642 35.0266L43.0443 37.4583L39.4488 39.7742L37.625 38.0025C36.736 38.2883 35.8133 38.4557 34.8806 38.5005L33.7863 40.8453L29.6061 39.9363L29.5771 37.3541C28.7391 36.9264 27.9605 36.3912 27.2612 35.7619L24.8294 36.6477L22.5135 33.0464L24.3257 31.1995C24.0399 30.3105 23.8725 29.3878 23.8278 28.4551L21.4829 27.3608L22.3919 23.1805H24.98L25.0031 23.1342ZM29.9419 26.776C29.7495 27.6635 29.8246 28.5881 30.1577 29.4329C30.4908 30.2777 31.0669 31.0047 31.8132 31.5221C32.5595 32.0394 33.4424 32.3239 34.3504 32.3394C35.2583 32.3549 36.1505 32.1009 36.9141 31.6094C37.6776 31.1179 38.2783 30.411 38.6401 29.5781C39.0019 28.7452 39.1087 27.8238 38.9468 26.9302C38.7849 26.0367 38.3617 25.2112 37.7307 24.5582C37.0996 23.9052 36.2891 23.454 35.4017 23.2616C34.8124 23.1331 34.2035 23.1221 33.6099 23.2292C33.0164 23.3364 32.4498 23.5596 31.9426 23.886C31.4354 24.2125 30.9976 24.6358 30.6543 25.1317C30.311 25.6276 30.0689 26.1864 29.9419 26.776Z" fill="#E36700"/>
<path fill-rule="evenodd" clip-rule="evenodd" d="M18.2303 4.08005C18.4371 3.6756 18.696 3.29993 19.0003 2.96261L18.5719 1.80464L20.3088 0.675623L21.2004 1.55568C21.6335 1.41585 22.0833 1.33408 22.5379 1.31251L23.0648 0.154541L25.097 0.594565V1.85096C25.4998 2.05758 25.8736 2.3165 26.2087 2.62101L27.3666 2.19256L28.4899 3.92951L27.6677 4.83852C27.8075 5.27162 27.8893 5.72136 27.9109 6.17597L29.0688 6.70284L28.6288 8.73507H27.3782C27.1715 9.1393 26.9105 9.51332 26.6024 9.84672L27.0366 11.0047L25.2997 12.1279L24.4022 11.2479C23.971 11.3871 23.5232 11.4689 23.0706 11.491L22.5379 12.649L20.5115 12.209V10.9584C20.1054 10.7518 19.7295 10.4908 19.394 10.1825L18.236 10.6168L17.107 8.87982L17.9871 7.98239C17.8478 7.55113 17.7661 7.10339 17.7439 6.65074L16.5859 6.11806L17.026 4.09162H18.2824L18.2303 4.08005ZM20.6272 5.84595C20.5331 6.27674 20.5689 6.72576 20.73 7.13623C20.8911 7.5467 21.1703 7.90017 21.5323 8.15192C21.8943 8.40367 22.3229 8.54239 22.7638 8.55054C23.2046 8.55868 23.638 8.43589 24.0091 8.19769C24.3802 7.95949 24.6723 7.61658 24.8484 7.21234C25.0246 6.80811 25.0769 6.3607 24.9987 5.92673C24.9206 5.49276 24.7155 5.09173 24.4094 4.77435C24.1032 4.45697 23.7099 4.23751 23.279 4.14374C22.7017 4.01808 22.098 4.12679 21.6008 4.44598C21.1036 4.76516 20.7534 5.26871 20.6272 5.84595Z" fill="#E36700"/>
<g opacity="0.8">
<path fill-rule="evenodd" clip-rule="evenodd" d="M25.0046 23.1342C25.4265 22.2942 25.9602 21.5152 26.591 20.8183L25.7052 18.3866L29.3064 16.0706L31.1534 17.8829C32.0417 17.5947 32.9648 17.4272 33.8978 17.3849L34.9921 15.04L39.1723 15.9433V18.5313C40.0145 18.9519 40.7939 19.4878 41.4883 20.1235L43.92 19.2377L46.2359 22.8332L44.4237 24.6859C44.7139 25.574 44.8833 26.4971 44.9274 27.4303L47.2434 28.5246L46.3401 32.7106H43.7521C43.3285 33.5497 42.795 34.3285 42.1657 35.0266L43.0457 37.4583L39.4502 39.7742L37.6264 38.0025C36.7375 38.2883 35.8147 38.4557 34.882 38.5005L33.7878 40.8453L29.6075 39.9363L29.5786 37.3541C28.7405 36.9264 27.962 36.3912 27.2626 35.7619L24.8309 36.6477L22.515 33.0464L24.3272 31.1995C24.0414 30.3105 23.874 29.3878 23.8293 28.4551L21.4844 27.3608L22.3934 23.1805H24.9814L25.0046 23.1342ZM29.9433 26.776C29.7509 27.6635 29.8261 28.5881 30.1591 29.4329C30.4922 30.2777 31.0683 31.0047 31.8146 31.5221C32.5609 32.0394 33.4439 32.3239 34.3518 32.3394C35.2598 32.3549 36.152 32.1009 36.9155 31.6094C37.6791 31.1179 38.2798 30.411 38.6416 29.5781C39.0034 28.7452 39.1101 27.8238 38.9482 26.9302C38.7864 26.0367 38.3631 25.2112 37.7321 24.5582C37.1011 23.9052 36.2906 23.454 35.4031 23.2616C34.8138 23.1331 34.205 23.1221 33.6114 23.2292C33.0178 23.3364 32.4512 23.5596 31.9441 23.886C31.4369 24.2125 30.9991 24.6358 30.6558 25.1317C30.3125 25.6276 30.0704 26.1864 29.9433 26.776Z" fill="white"/>
</g>
</svg>
