<svg width="50" height="33" viewBox="0 0 50 33" fill="none" xmlns="http://www.w3.org/2000/svg">
<path d="M49.4847 30.0839L46.3819 32.5H24.7509C15.6468 32.5 8.23975 25.3226 8.23975 16.5016V16.0984H13.225V16.5016C13.225 22.6583 18.3964 27.6686 24.7509 27.6686H46.3835L49.4847 30.0839Z" fill="#E36700"/>
<g opacity="0.4">
<path d="M49.4847 30.0839L46.3819 32.5H24.7509C15.6468 32.5 8.23975 25.3226 8.23975 16.5016V16.0984H13.225V16.5016C13.225 22.6583 18.3964 27.6686 24.7509 27.6686H46.3835L49.4847 30.0839Z" fill="black"/>
</g>
<path d="M25.1674 0.501467V5.33291H24.7521C22.9594 5.32749 21.1907 5.7316 19.5894 6.51244C17.6764 7.44121 16.0679 8.86746 14.9438 10.6316C13.8198 12.3957 13.2245 14.4281 13.2245 16.5014V16.6001L10.7152 18.6115L8.23926 16.6001V16.5014C8.23821 14.3999 8.66462 12.3188 9.49411 10.3771C10.3236 8.43542 11.5399 6.67116 13.0735 5.18521C14.607 3.69927 16.4278 2.52078 18.4317 1.71711C20.4356 0.913437 22.5833 0.500352 24.7521 0.501467H25.1674Z" fill="#E36700"/>
<g opacity="0.3">
<path d="M25.1664 0.501711V5.33315H24.7511C22.9584 5.32774 21.1897 5.73184 19.5884 6.51268C17.6754 7.44146 16.0669 8.8677 14.9429 10.6318C13.8188 12.396 13.2235 14.4284 13.2235 16.5017V16.6004L10.7142 18.6117L8.23828 16.6004V16.5017C8.23724 14.4002 8.66365 12.3191 9.49313 10.3774C10.3226 8.43566 11.5389 6.6714 13.0725 5.18546C14.6061 3.69951 16.4268 2.52102 18.4307 1.71735C20.4346 0.913681 22.5823 0.500597 24.7511 0.501711H25.1664Z" fill="black"/>
</g>
<path d="M41.2612 16.5016V16.904H36.2759V16.5016C36.2749 14.5974 35.7718 12.7251 34.8142 11.0624C33.8567 9.39959 32.4765 8.00151 30.8047 7.0008C29.1329 6.00009 27.2249 5.42996 25.2619 5.34451C23.2988 5.25906 21.3457 5.66113 19.5881 6.51256L19.5037 6.55342L16.1797 5.59284L17.2546 2.2439L17.354 2.19611C19.6484 1.0748 22.1834 0.493716 24.7531 0.500051C26.9217 0.499342 29.0691 0.912788 31.0726 1.71675C33.0762 2.52072 34.8965 3.69944 36.4297 5.18553C37.9628 6.67162 39.1786 8.43593 40.0076 10.3776C40.8367 12.3193 41.2626 14.4003 41.2612 16.5016Z" fill="#E36700"/>
<g opacity="0.2">
<path d="M41.2612 16.5016V16.904H36.2759V16.5016C36.2749 14.5974 35.7718 12.7251 34.8142 11.0624C33.8567 9.39959 32.4765 8.00151 30.8047 7.0008C29.1329 6.00009 27.2249 5.42996 25.2619 5.34451C23.2988 5.25906 21.3457 5.66113 19.5881 6.51256L19.5037 6.55342L16.1797 5.59284L17.2546 2.2439L17.354 2.19611C19.6484 1.0748 22.1834 0.493716 24.7531 0.500051C26.9217 0.499342 29.0691 0.912788 31.0726 1.71675C33.0762 2.52072 34.8965 3.69944 36.4297 5.18553C37.9628 6.67162 39.1786 8.43593 40.0076 10.3776C40.8367 12.3193 41.2626 14.4003 41.2612 16.5016Z" fill="black"/>
</g>
<path d="M41.2621 16.5014C41.2621 25.3224 33.8566 32.4998 24.7517 32.4998H24.3364V27.6684H24.7517C31.107 27.6684 36.2769 22.6573 36.2769 16.5014C36.2798 14.4613 35.7051 12.4595 34.6152 10.714C33.5254 8.96843 31.9622 7.5461 30.0958 6.60186L30.0163 6.55946L29.2819 3.50425L32.3156 2.27075L32.4142 2.32086C35.087 3.6736 37.3255 5.7112 38.8856 8.21165C40.4458 10.7121 41.2678 13.5795 41.2621 16.5014Z" fill="#E36700"/>
<g opacity="0.1">
<path d="M41.2626 16.5017C41.2626 25.3227 33.8571 32.5001 24.7522 32.5001H24.3369V27.6686H24.7522C31.1075 27.6686 36.2774 22.6576 36.2774 16.5017C36.2803 14.4615 35.7056 12.4597 34.6157 10.7142C33.5258 8.96867 31.9626 7.54635 30.0963 6.6021L30.0167 6.5597L29.2824 3.50449L32.316 2.271L32.4147 2.32111C35.0875 3.67384 37.326 5.71144 38.8861 8.21189C40.4463 10.7123 41.2683 13.5797 41.2626 16.5017Z" fill="black"/>
</g>
<path d="M41.2617 16.4013V16.5015C41.2617 25.3226 33.8562 32.4999 24.7513 32.4999H0.485352V27.6685H24.7513C31.1066 27.6685 36.2765 22.6574 36.2765 16.5015V16.4013L38.7094 14.3352L41.2617 16.4013Z" fill="#E36700"/>
</svg>
