<svg width="58" height="57" viewBox="0 0 58 57" fill="none" xmlns="http://www.w3.org/2000/svg">
<path d="M28.8698 9.4832C28.6917 8.35973 28.6736 7.21669 28.816 6.08813C28.9953 7.21151 29.0134 8.35471 28.8698 9.4832Z" fill="white"/>
<path d="M21.1177 11.6218C20.4018 10.7381 19.8149 9.7573 19.3745 8.70874C20.09 9.59269 20.6769 10.5734 21.1177 11.6218Z" fill="white"/>
<path d="M15.4728 17.3497C14.4116 16.9417 13.4135 16.3856 12.5083 15.6978C13.57 16.1046 14.5682 16.6609 15.4728 17.3497Z" fill="white"/>
<path d="M13.4484 25.1318C12.3257 25.3099 11.1834 25.3281 10.0557 25.1856C11.1782 25.0063 12.3207 24.9882 13.4484 25.1318Z" fill="white"/>
<path d="M15.5865 32.8838C14.7036 33.5996 13.7236 34.1865 12.6758 34.627C13.5587 33.9111 14.5387 33.3242 15.5865 32.8838Z" fill="white"/>
<path d="M42.4951 32.6873C43.5567 33.0933 44.555 33.6488 45.4597 34.3368C44.3985 33.9297 43.4004 33.3743 42.4951 32.6873Z" fill="white"/>
<path d="M44.519 24.9026C45.6425 24.7241 46.7857 24.7067 47.9141 24.8511C46.7905 25.0285 45.6475 25.0458 44.519 24.9026Z" fill="white"/>
<path d="M42.3799 17.1508C43.2634 16.4372 44.2444 15.8534 45.2929 15.417C44.4095 16.1326 43.4286 16.7188 42.3799 17.1578V17.1508Z" fill="white"/>
<path d="M36.6528 11.507C37.0604 10.4452 37.6175 9.44695 38.3071 8.54248C37.8992 9.60369 37.343 10.6018 36.6552 11.507H36.6528Z" fill="white"/>
<g opacity="0.5">
<path d="M42.4061 26.0937C41.7182 34.4094 34.7783 36.8989 34.7783 36.8989C34.2659 38.1601 33.4446 41.9366 33.4446 41.9366L24.3872 41.9108C24.3872 41.9108 23.6852 38.1297 23.1798 36.8638C23.1798 36.8638 16.2563 34.3345 15.6152 26.0141C15.1707 20.2325 19.3121 11.6992 29.0036 11.7249H29.1042C38.7934 11.7553 42.8857 20.3144 42.4061 26.0937Z" fill="#FB7200"/>
<path d="M42.4062 26.0936C42.088 30.813 39.1492 35.1159 34.7948 36.9059C34.1888 38.5437 33.8822 40.3126 33.4447 41.9598L24.3592 41.9458C24.1112 40.6613 23.8468 39.372 23.5192 38.1155C23.417 37.6967 23.2904 37.2842 23.1402 36.8801L23.1659 36.9035C22.0436 36.4324 21.0003 35.7917 20.0727 35.0036C17.2275 32.6802 15.6107 29.0722 15.5311 25.4244C15.4773 20.588 18.0651 15.6744 22.3446 13.3112C24.4692 12.1179 26.9307 11.6359 29.35 11.6991C31.7884 11.6928 34.1782 12.3808 36.24 13.6827C38.3018 14.9846 39.9503 16.8465 40.9929 19.0507C42.0688 21.2327 42.5529 23.6588 42.3968 26.0866L42.4062 26.0936ZM42.4062 26.0936C42.5511 23.6691 42.0581 21.2489 40.9765 19.0741C38.1852 13.2246 31.9332 10.7585 25.7514 12.1109C19.7077 13.3346 15.5124 19.3947 15.6434 25.4221C15.7651 30.3988 18.636 34.8632 23.2197 36.8474C23.7883 38.4852 24.0808 40.205 24.4224 41.9037C24.2165 41.8429 33.4891 41.9224 33.4447 41.9037C33.7671 40.1995 34.2089 38.5201 34.7667 36.8778C39.1468 35.0808 42.0833 30.7802 42.4062 26.0866V26.0936Z" fill="white"/>
</g>
<path d="M24.1987 27.5402L23.5083 27.667L26.2851 42.7819L26.9755 42.6551L24.1987 27.5402Z" fill="white"/>
<path d="M33.8799 27.8169L30.96 42.8774L31.6479 43.0108L34.5678 27.9503L33.8799 27.8169Z" fill="white"/>
<path d="M28.9963 32.638C28.1399 32.638 27.3584 31.8401 26.8015 30.8176C26.7048 30.9444 26.5826 31.0495 26.4427 31.1261C26.3029 31.2026 26.1485 31.249 25.9896 31.2622C24.5693 31.2622 24.0078 28.3281 23.9844 28.2041L24.2184 28.1596C24.2184 28.19 24.7635 31.0259 25.9919 31.0282C26.1331 31.0105 26.2688 30.9626 26.3899 30.888C26.511 30.8133 26.6146 30.7135 26.6939 30.5953C26.2681 29.7614 26.0286 28.8449 25.9919 27.9092C25.9919 27.0903 26.3031 26.62 26.8389 26.62C26.9974 26.6153 27.1541 26.6546 27.2916 26.7335C27.4291 26.8123 27.5421 26.9278 27.6181 27.0669C28.0439 27.8086 27.7257 29.3459 27.1501 30.3146C27.0898 30.4205 27.0234 30.5228 26.9513 30.6211C27.466 31.6132 28.2007 32.4017 28.9892 32.404C29.5789 32.404 30.1732 31.9361 30.6622 31.0984C30.7043 31.0282 30.7441 30.9533 30.7839 30.8785C30.2293 30.2678 29.9181 29.278 29.9205 28.3374C29.9205 27.2845 30.3182 26.6317 30.9523 26.6317C31.0762 26.6323 31.1975 26.6671 31.3028 26.7324C31.4081 26.7976 31.4933 26.8907 31.549 27.0014C31.9678 27.7314 31.7291 29.4746 31.0623 30.8434C31.3178 31.0948 31.6608 31.2374 32.0193 31.2411C32.892 31.2411 33.6572 29.1657 33.8911 28.3655L34.1251 28.4287C34.09 28.5527 33.2547 31.4704 32.0193 31.4704C31.624 31.4648 31.2448 31.3132 30.9547 31.0446C30.9243 31.1007 30.8938 31.1569 30.8611 31.2131C30.4937 31.8659 29.8643 32.638 28.9963 32.638ZM30.9594 26.8657C30.3721 26.8657 30.1615 27.6589 30.1615 28.3374C30.1615 29.0791 30.3955 30.0502 30.8985 30.6585C31.4998 29.3786 31.7268 27.7642 31.3548 27.116C31.3191 27.0419 31.2633 26.9791 31.1939 26.9349C31.1244 26.8907 31.044 26.8667 30.9617 26.8657H30.9594ZM26.8413 26.854C26.3125 26.854 26.2306 27.5162 26.2283 27.9092C26.258 28.7704 26.4667 29.6158 26.8413 30.3918C26.8787 30.3333 26.9185 30.2725 26.9559 30.2069C27.4754 29.3131 27.7889 27.8671 27.4099 27.1933C27.355 27.0894 27.2718 27.0033 27.1699 26.9448C27.068 26.8864 26.9516 26.8582 26.8343 26.8633L26.8413 26.854Z" fill="white"/>
<path d="M34.9741 41.9414L22.9546 41.9058L22.935 48.5204L34.9545 48.556L34.9741 41.9414Z" fill="#C7C7C7"/>
<path d="M33.5921 48.5511C32.8901 49.8029 31.5237 50.9214 28.9382 50.912C26.3527 50.9026 25.0003 49.7795 24.2983 48.5254L33.5921 48.5511Z" fill="#C7C7C7"/>
<path d="M33.5918 48.5511C33.3814 48.9254 33.1182 49.2674 32.8103 49.5666L24.5367 48.9068C24.4516 48.7842 24.3735 48.6568 24.3027 48.5254L33.5918 48.5511Z" fill="#A6A6A6"/>
<path d="M35.3238 43.2023L22.5952 44.3418L22.5976 43.7662L35.3238 42.6267V43.2023Z" fill="#A6A6A6"/>
<path d="M35.3156 44.95L22.5894 46.0895L22.5917 45.5116L35.3179 44.3721L35.3156 44.95Z" fill="#A6A6A6"/>
<path d="M35.3112 46.6955L22.585 47.835L22.5873 47.257L35.3135 46.1199L35.3112 46.6955Z" fill="#A6A6A6"/>
<g opacity="0.7">
<path d="M18.1233 23.2202C18.5632 23.295 19.1411 21.0231 21.5956 18.3978C22.6836 17.2279 26.811 15.7796 26.5092 14.4201C26.2074 13.0607 22.5315 14.4459 20.6807 16.5845C17.7022 20.0333 17.7162 23.15 18.1233 23.2202Z" fill="white"/>
<path d="M40.1385 24.6055C40.9481 24.6055 40.9551 23.349 40.1385 23.3467C39.3219 23.3443 39.3266 24.6032 40.1385 24.6055Z" fill="white"/>
<path d="M36.2001 34.3461C36.6424 34.683 38.7997 32.7082 39.7754 30.3404C40.5873 28.3773 40.7323 25.8947 40.1919 25.7473C39.6514 25.5999 39.2887 29.009 38.6359 30.2631C37.7959 31.8449 35.7158 33.9834 36.2001 34.3461Z" fill="white"/>
</g>
</svg>
