<svg width="50" height="41" viewBox="0 0 50 41" fill="none" xmlns="http://www.w3.org/2000/svg">
<path d="M26.85 0.250314H4.99129C4.40339 0.242867 3.82049 0.367813 3.27962 0.617212C2.73874 0.86661 2.25172 1.23501 1.8495 1.699C1.44728 2.163 1.13865 2.71245 0.943215 3.31243C0.747783 3.91242 0.669825 4.54983 0.714291 5.18417L1.32773 15.5681L1.59355 20.159L5.57065 15.5681H27.7429C28.3307 15.5745 28.9133 15.4487 29.4537 15.1987C29.9942 14.9487 30.4808 14.5798 30.8826 14.1156C31.2844 13.6514 31.5926 13.1019 31.7878 12.502C31.983 11.902 32.0609 11.2648 32.0165 10.6306L31.6995 5.18417C31.6046 3.85588 31.0548 2.61379 30.1577 1.70117C29.2607 0.788553 28.0811 0.271154 26.85 0.250314Z" fill="#E36700"/>
<path opacity="0.5" d="M26.85 0.250314H4.99129C4.4034 0.242867 3.82049 0.367813 3.27962 0.617212C2.73874 0.86661 2.25172 1.23501 1.8495 1.699C1.44728 2.163 1.13865 2.71245 0.943215 3.31243C0.747783 3.91242 0.669825 4.54983 0.714291 5.18417L1.32773 15.5681L1.59355 20.159L5.57065 15.5681H27.7429C28.3307 15.5745 28.9133 15.4487 29.4537 15.1987C29.9942 14.9487 30.4808 14.5798 30.8826 14.1156C31.2844 13.6514 31.5927 13.1019 31.7878 12.502C31.983 11.902 32.0609 11.2648 32.0165 10.6306L31.6995 5.18417C31.6046 3.85588 31.0548 2.61379 30.1577 1.70117C29.2607 0.788553 28.0811 0.271154 26.85 0.250314Z" fill="white"/>
<path d="M26.4843 7.01329H5.82516C5.62015 7.00939 5.42384 6.923 5.2745 6.77096C5.12517 6.61893 5.03354 6.41216 5.01747 6.19098C5.01041 6.08539 5.02363 5.97937 5.0563 5.87958C5.08896 5.77979 5.14037 5.6884 5.20727 5.61115C5.27418 5.53391 5.35514 5.47249 5.44506 5.43076C5.53497 5.38903 5.6319 5.36789 5.72974 5.36867H26.382C26.5876 5.37167 26.7848 5.45765 26.9348 5.60978C27.0849 5.7619 27.177 5.96918 27.1931 6.19098C27.2002 6.29626 27.187 6.40197 27.1546 6.50151C27.1221 6.60105 27.071 6.69226 27.0045 6.76945C26.938 6.84664 26.8574 6.90814 26.7679 6.95009C26.6784 6.99205 26.5818 7.01357 26.4843 7.01329Z" fill="white"/>
<path d="M19.6728 10.8111H6.04097C5.8356 10.8073 5.63887 10.7211 5.48898 10.5691C5.3391 10.4171 5.24675 10.2103 5.22987 9.98883C5.22282 9.88324 5.23604 9.77722 5.2687 9.67743C5.30137 9.57764 5.35277 9.48624 5.41967 9.409C5.48658 9.33176 5.56754 9.27034 5.65746 9.22861C5.74737 9.18688 5.8443 9.16574 5.94214 9.16652H19.574C19.7795 9.16875 19.9767 9.25457 20.1263 9.40694C20.276 9.55931 20.3672 9.76704 20.3817 9.98883C20.3887 10.0941 20.3756 10.1998 20.3432 10.2994C20.3107 10.3989 20.2596 10.4901 20.1931 10.5673C20.1265 10.6445 20.046 10.706 19.9565 10.7479C19.867 10.7899 19.7704 10.8114 19.6728 10.8111Z" fill="white"/>
<path d="M21.6455 20.1592H43.5009C44.7325 20.1801 45.9126 20.698 46.8097 21.6114C47.7068 22.5248 48.2562 23.7677 48.3504 25.0967L48.9979 36.1591L49.2671 40.7501L44.755 36.1591H22.5793C21.3479 36.1374 20.1683 35.6192 19.2713 34.706C18.3744 33.7928 17.8247 32.5503 17.7298 31.2216L17.372 25.082C17.3295 24.4489 17.4089 23.8133 17.6049 23.2151C17.801 22.617 18.1096 22.0693 18.5112 21.6067C18.9128 21.1441 19.3987 20.7766 19.9382 20.5275C20.4776 20.2783 21.059 20.1529 21.6455 20.1592Z" fill="#E36700"/>
<path d="M31.4039 27.5744C31.4355 28.0421 31.628 28.4801 31.9435 28.8016C32.259 29.1232 32.6745 29.305 33.1079 29.3112C33.3149 29.3139 33.5202 29.2699 33.7106 29.1822C33.9011 29.0944 34.0726 28.9647 34.2143 28.8014C34.3559 28.6381 34.4646 28.4446 34.5335 28.2334C34.6024 28.0222 34.6299 27.7977 34.6142 27.5744C34.5812 27.1072 34.3882 26.6703 34.073 26.349C33.7578 26.0278 33.3432 25.8454 32.9103 25.8376C32.7031 25.8343 32.4976 25.8779 32.3069 25.9654C32.1162 26.053 31.9445 26.1827 31.8027 26.3461C31.6609 26.5096 31.5523 26.7033 31.4836 26.9147C31.4149 27.1262 31.3878 27.3509 31.4039 27.5744Z" fill="white"/>
<path d="M26.0494 28.1573C26.081 28.6251 26.2735 29.063 26.589 29.3846C26.9045 29.7062 27.32 29.888 27.7534 29.8941C27.9603 29.8969 28.1654 29.8529 28.3557 29.7651C28.546 29.6773 28.7173 29.5476 28.8587 29.3842C29.0001 29.2208 29.1085 29.0273 29.177 28.8161C29.2454 28.6049 29.2725 28.3805 29.2563 28.1573C29.2233 27.6902 29.0303 27.2532 28.7151 26.932C28.3999 26.6107 27.9853 26.4283 27.5524 26.4205C27.3455 26.4178 27.1404 26.4617 26.9501 26.5495C26.7598 26.6373 26.5885 26.7671 26.4471 26.9305C26.3057 27.0939 26.1973 27.2874 26.1288 27.4986C26.0604 27.7098 26.0333 27.9342 26.0494 28.1573Z" fill="white"/>
<path d="M36.8729 29.0311C36.906 29.4982 37.099 29.9352 37.4141 30.2564C37.7293 30.5777 38.144 30.7601 38.5769 30.7679C38.7837 30.7706 38.9889 30.7267 39.1792 30.6389C39.3695 30.5511 39.5408 30.4213 39.6822 30.2579C39.8236 30.0945 39.9319 29.9011 40.0004 29.6898C40.0689 29.4786 40.0959 29.2542 40.0798 29.0311C40.0483 28.5633 39.8557 28.1254 39.5402 27.8038C39.2247 27.4822 38.8092 27.3004 38.3758 27.2943C38.1691 27.2921 37.9642 27.3364 37.7742 27.4244C37.5841 27.5124 37.413 27.6421 37.2717 27.8054C37.1304 27.9687 37.022 28.1619 36.9534 28.3729C36.8847 28.5839 36.8573 28.808 36.8729 29.0311Z" fill="white"/>
</svg>
