<svg width="37" height="45" viewBox="0 0 37 45" fill="none" xmlns="http://www.w3.org/2000/svg">
<path d="M8.72922 1.60273L1.74414 39.1445L30.0069 44.4031L36.992 6.86133L8.72922 1.60273Z" fill="#E36700"/>
<g opacity="0.1">
<path d="M8.72922 1.60273L1.74414 39.1445L30.0069 44.4031L36.992 6.86133L8.72922 1.60273Z" fill="#020100"/>
</g>
<path d="M7.96261 1.46015L0.977539 39.002L29.2403 44.2606L36.2254 6.71875L7.96261 1.46015Z" fill="#E36700"/>
<path d="M9.32981 3.5959L3.46826 37.4954L28.4765 41.8195L34.338 7.92006L9.32981 3.5959Z" fill="#EBEBEB"/>
<path d="M9.61521 3.21319L2.5918 36.8911L27.4366 42.0724L34.46 8.39449L9.61521 3.21319Z" fill="#DBDBDB"/>
<path d="M9.18994 3.40454L2.89697 37.2266L27.8481 41.869L34.141 8.04697L9.18994 3.40454Z" fill="white"/>
<path d="M12.8327 14.6847C12.13 14.5987 10.8282 14.4119 10.1255 14.3022C10.2649 13.4126 10.422 12.4993 10.591 11.6038L10.6177 11.4556L10.763 11.4852C11.6526 11.6542 12.557 11.8262 13.4495 12.0219C13.2983 12.7158 13.0047 13.9997 12.8327 14.6906V14.6847ZM12.8327 14.6847C12.9158 14.0353 13.0996 12.7336 13.2004 12.0872L13.2923 12.2206C12.4265 12.0872 11.5696 11.9241 10.7096 11.7758L10.8816 11.6572C10.7185 12.5142 10.5554 13.3741 10.3686 14.228L10.2767 14.0946C10.9142 14.234 12.1982 14.5305 12.8327 14.6877V14.6847Z" fill="#C7C7C7"/>
<path d="M14.6001 12.8047C16.5258 12.9567 18.4302 13.3115 20.2815 13.8633C18.3556 13.7118 16.4513 13.3569 14.6001 12.8047Z" fill="#C7C7C7"/>
<path d="M14.4839 13.4243C19.5248 14.1627 24.5834 15.1026 29.5591 16.2324C24.5182 15.494 19.4595 14.5541 14.4839 13.4243Z" fill="#C7C7C7"/>
<path d="M10.7095 12.8196C10.7925 12.9174 10.8666 13.0153 10.9408 13.1161L11.1572 13.4126C11.2996 13.6172 11.433 13.8248 11.5635 14.0353L11.2669 13.9997C11.5934 13.5565 11.949 13.1355 12.3314 12.7395C12.5242 12.5438 12.7229 12.354 12.9245 12.1702C13.1343 11.9855 13.3561 11.8151 13.5887 11.6602C13.4612 11.9085 13.3176 12.1482 13.1587 12.3777C13.0016 12.6061 12.8355 12.8255 12.6636 13.039C12.316 13.4656 11.9395 13.8679 11.5368 14.2429L11.3351 14.4297L11.2373 14.2073C11.1394 13.979 11.0416 13.7506 10.9408 13.5193C10.8992 13.4037 10.8518 13.2881 10.8133 13.1695C10.7747 13.0508 10.7451 12.9382 10.7095 12.8196Z" fill="#263238"/>
<path d="M11.9347 19.5121C11.232 19.4231 9.93026 19.2393 9.23047 19.1266C9.36687 18.237 9.52699 17.3267 9.69304 16.4283L9.71973 16.283L9.86502 16.3096C10.7546 16.4816 11.659 16.6536 12.5515 16.8493C12.4003 17.5432 12.1067 18.8242 11.9347 19.518V19.5121ZM11.9347 19.5121C12.0178 18.8627 12.2016 17.561 12.3024 16.9146L12.3944 17.048C11.5285 16.9146 10.6716 16.7515 9.81165 16.6032L9.98364 16.4846C9.82055 17.3415 9.65746 18.1985 9.47065 19.0525L9.37873 18.922C10.0163 19.0584 11.3002 19.3579 11.9347 19.515V19.5121Z" fill="#C7C7C7"/>
<path d="M13.7012 17.6321C15.6271 17.7828 17.5316 18.1376 19.3825 18.6907C17.4567 18.5392 15.5523 18.1843 13.7012 17.6321Z" fill="#C7C7C7"/>
<path d="M13.5854 18.252C18.6263 18.9903 23.685 19.9303 28.6636 21.06C23.6227 20.3217 18.5611 19.3817 13.5854 18.252Z" fill="#C7C7C7"/>
<path d="M9.81055 17.6469C9.89357 17.7418 9.9677 17.8427 10.0418 17.9435C10.116 18.0443 10.1871 18.1451 10.2583 18.24C10.4006 18.4446 10.5341 18.6522 10.6645 18.8597L10.368 18.8241C10.6926 18.3812 11.0473 17.9611 11.4296 17.5669C11.6223 17.3712 11.821 17.1784 12.0226 16.9976C12.2324 16.8129 12.4543 16.6425 12.6868 16.4875C12.5587 16.7355 12.4151 16.9752 12.2569 17.2051C12.0997 17.4335 11.9336 17.6529 11.7617 17.8664C11.4133 18.2924 11.0369 18.6945 10.6349 19.0703L10.4332 19.2541L10.3354 19.0317C10.2375 18.8064 10.1397 18.578 10.0389 18.3467C9.99736 18.2311 9.94991 18.1155 9.91136 17.9968C9.87282 17.8782 9.84613 17.7685 9.81055 17.6469Z" fill="#263238"/>
<path d="M11.0358 24.3395C10.3331 24.2505 9.03133 24.0637 8.33154 23.954C8.46794 23.0644 8.62806 22.1541 8.79412 21.2556L8.8208 21.1104L8.9661 21.137C9.85566 21.309 10.7601 21.478 11.6526 21.6767C11.5014 22.3676 11.2078 23.6515 11.0358 24.3454V24.3395ZM11.0358 24.3395C11.1188 23.6901 11.3027 22.3884 11.4035 21.7419L11.4954 21.8754C10.6296 21.7419 9.77264 21.5789 8.91272 21.4276L9.08471 21.309C8.92162 22.1689 8.75853 23.0259 8.57173 23.8799L8.4798 23.7464C9.11733 23.8858 10.4013 24.1853 11.0358 24.3395Z" fill="#C7C7C7"/>
<path d="M12.8027 22.4595C14.7284 22.6105 16.6327 22.9643 18.4841 23.5151C16.5584 23.3646 14.654 23.0108 12.8027 22.4595Z" fill="#C7C7C7"/>
<path d="M12.6865 23.0791C17.7274 23.8145 22.7861 24.7545 27.7647 25.8842C22.7238 25.1488 17.6622 24.2089 12.6865 23.0791Z" fill="#C7C7C7"/>
<path d="M10.1364 29.1669C9.43365 29.0779 8.13192 28.8911 7.43213 28.7814C7.56853 27.8918 7.72865 26.9815 7.8947 26.083L7.92139 25.9377L8.06668 25.9644C8.95625 26.1334 9.86064 26.3054 10.7532 26.5011C10.6019 27.195 10.3084 28.4789 10.1364 29.1698V29.1669ZM10.1364 29.1669C10.2194 28.5175 10.4033 27.2128 10.5041 26.5693L10.596 26.7028C9.73017 26.5693 8.87322 26.4063 8.01331 26.255L8.1853 26.1364C8.02221 26.9963 7.85912 27.8533 7.67231 28.7073L7.58039 28.5738C8.21791 28.7132 9.50185 29.0097 10.1364 29.1669Z" fill="#C7C7C7"/>
<path d="M11.9053 27.2869C13.8317 27.441 15.7362 27.7999 17.5866 28.3573C15.6609 28.2068 13.7565 27.853 11.9053 27.3017V27.2869Z" fill="#C7C7C7"/>
<path d="M11.7769 27.9067C16.8177 28.6421 21.8764 29.5821 26.855 30.7118C21.8141 29.9735 16.7525 29.0335 11.7769 27.9067Z" fill="#C7C7C7"/>
<path d="M9.23895 33.9911C8.53619 33.9051 7.23446 33.7183 6.53467 33.6086C6.67107 32.7042 6.83119 31.8057 6.99724 30.9102L7.02393 30.762L7.16922 30.7916C8.05879 30.9606 8.96318 31.1326 9.85571 31.3283C9.70448 32.0222 9.41093 33.3061 9.23895 33.997V33.9911ZM9.23895 33.9911C9.32197 33.3417 9.50581 32.04 9.60663 31.3936L9.69855 31.527C8.83567 31.3936 7.97576 31.2305 7.11585 31.0822L7.28783 30.9636C7.12474 31.8205 6.96166 32.6805 6.77485 33.5344L6.68293 33.401C7.32045 33.5404 8.60439 33.8369 9.23895 33.9941V33.9911Z" fill="#C7C7C7"/>
<path d="M11.0063 32.1113C12.9321 32.2631 14.8365 32.6179 16.6877 33.1699C14.7619 33.0184 12.8575 32.6636 11.0063 32.1113Z" fill="#C7C7C7"/>
<path d="M10.8867 32.731C15.9276 33.4693 20.9863 34.4093 25.9649 35.539C20.924 34.8007 15.8624 33.8607 10.8867 32.731Z" fill="#C7C7C7"/>
<path d="M15.8218 2.21732L15.1265 5.95459L27.3819 8.23486L28.0773 4.49758L15.8218 2.21732Z" fill="#C7C7C7"/>
<path d="M26.0841 2.0143L18.4783 0.596924L17.7607 2.57769L26.1553 4.14036L26.0841 2.0143ZM22.0633 2.78526C21.9746 2.76848 21.8928 2.72578 21.8284 2.66256C21.7639 2.59935 21.7197 2.51845 21.7012 2.43008C21.6827 2.34172 21.6908 2.24986 21.7245 2.16611C21.7582 2.08236 21.816 2.01048 21.8905 1.95954C21.9651 1.90861 22.053 1.88091 22.1433 1.87995C22.2336 1.87899 22.3221 1.90481 22.3977 1.95414C22.4733 2.00347 22.5326 2.07411 22.5681 2.15712C22.6035 2.24013 22.6136 2.3318 22.597 2.42053C22.586 2.47956 22.5634 2.53582 22.5306 2.58611C22.4978 2.6364 22.4554 2.67972 22.4058 2.7136C22.3562 2.74747 22.3004 2.77124 22.2417 2.78354C22.1829 2.79583 22.1223 2.79642 22.0633 2.78526Z" fill="#C7C7C7"/>
<path d="M26.1553 4.14051L17.7607 2.57784L17.9238 2.13306L26.1375 3.66311L26.1553 4.14051Z" fill="#A6A6A6"/>
</svg>
